<svg width="24" height="24" viewBox="0 0 24 24" fill="current" xmlns="http://www.w3.org/2000/svg">
<g clip-path="url(#clip0_1288_13023)">
<path d="M17.0089 7.74109H15.7527C15.4794 7.74109 15.2196 7.87234 15.0589 8.09734L10.8482 13.9366L8.94105 11.2902C8.78034 11.0679 8.5232 10.9339 8.2473 10.9339H6.99105C6.81695 10.9339 6.71516 11.1322 6.81695 11.2741L10.1544 15.9027C10.2333 16.0127 10.3372 16.1024 10.4576 16.1643C10.5781 16.2261 10.7115 16.2584 10.8469 16.2584C10.9822 16.2584 11.1157 16.2261 11.2361 16.1643C11.3565 16.1024 11.4604 16.0127 11.5393 15.9027L17.1803 8.08127C17.2848 7.9393 17.183 7.74109 17.0089 7.74109V7.74109Z"/>
<path d="M12 0C5.37321 0 0 5.37321 0 12C0 18.6268 5.37321 24 12 24C18.6268 24 24 18.6268 24 12C24 5.37321 18.6268 0 12 0ZM12 21.9643C6.49821 21.9643 2.03571 17.5018 2.03571 12C2.03571 6.49821 6.49821 2.03571 12 2.03571C17.5018 2.03571 21.9643 6.49821 21.9643 12C21.9643 17.5018 17.5018 21.9643 12 21.9643Z"/>
</g>
</svg>
