<svg width="24" height="24" viewBox="0 0 24 24" fill="none" xmlns="http://www.w3.org/2000/svg">
<g clip-path="url(#clip0_1475_14119)">
<path d="M11.9893 0.328126C5.36518 0.325447 0 5.68795 0 12.3067C0 17.5406 3.35625 21.9897 8.03036 23.6237C8.65982 23.7817 8.56339 23.3344 8.56339 23.029V20.9531C4.92857 21.379 4.78125 18.9737 4.5375 18.5719C4.04464 17.7308 2.87946 17.5165 3.22768 17.1147C4.05536 16.6888 4.89911 17.2219 5.87679 18.6656C6.58393 19.7129 7.96339 19.5362 8.6625 19.3621C8.81518 18.7326 9.14196 18.1701 9.59196 17.7335C5.82589 17.0585 4.25625 14.7603 4.25625 12.0281C4.25625 10.7022 4.69286 9.48348 5.55 8.50045C5.00357 6.87991 5.60089 5.49241 5.68125 5.28616C7.2375 5.14688 8.85536 6.40045 8.98125 6.49956C9.86518 6.26116 10.875 6.13527 12.0054 6.13527C13.1411 6.13527 14.1536 6.26652 15.0455 6.50759C15.3482 6.27723 16.8482 5.20045 18.2946 5.3317C18.3723 5.53795 18.9563 6.89331 18.442 8.49241C19.3098 9.47813 19.7518 10.7076 19.7518 12.0362C19.7518 14.7737 18.1714 17.0746 14.3946 17.7388C14.7181 18.057 14.975 18.4364 15.1502 18.8549C15.3254 19.2734 15.4155 19.7226 15.4152 20.1763V23.1897C15.4366 23.4308 15.4152 23.6692 15.817 23.6692C20.5607 22.0701 23.9759 17.5888 23.9759 12.3094C23.9759 5.68795 18.608 0.328126 11.9893 0.328126Z" fill="white"/>
</g>
<defs>
<clipPath id="clip0_1475_14119">
<rect width="24" height="24" fill="white"/>
</clipPath>
</defs>
</svg>
