<svg width="24" height="24" xmlns="http://www.w3.org/2000/svg" viewBox="0 0 654.91 692.58" ><path d="M310.79,0h33.33a28.13,28.13,0,0,0,3.52.6,329.93,329.93,0,0,1,72.67,11.77C497.91,34.26,560.87,77,606.37,144.17a278.38,278.38,0,0,1,46.49,125.18c.73,6.32,1.37,12.66,2,19V318a28.25,28.25,0,0,0-.64,3.52,264.52,264.52,0,0,1-7.84,49.95c-17.61,68.41-55.66,123.3-111.65,165.65-61.67,46.66-131.85,68.44-208.94,68.54a304.52,304.52,0,0,1-59.72-5.49c-5.07-1-8.21.3-11.9,3Q194.19,648,134,692.58H129c-4.6-2.18-6-5.8-6-10.8.12-46.22,0-92.42.14-138.64a7,7,0,0,0-3-6c-14.74-12.46-29.94-24.42-43.86-37.74C31.88,456.93,8,404.44,2.09,343.55,1.36,336,.72,328.47,0,320.93v-32.6a35.88,35.88,0,0,0,.62-3.85A275.15,275.15,0,0,1,23.08,191.1c26.49-60.93,69.18-107.72,125.73-142C192,22.82,239,7.47,289.24,2.09,296.42,1.33,303.6.72,310.79,0Zm22.69,331.25a27.41,27.41,0,0,0-3.12-.51q-21.17,0-42.36-.06c-2.22,0-2.79,1.08-3.38,2.89a63.31,63.31,0,0,1-18.11,27.92C236.65,388.44,186.77,385,159.7,354c-17.51-20.09-22.37-43.65-17.28-69.35,4.72-23.81,17.78-41.69,39.91-52.29a78.11,78.11,0,0,1,44.81-6.94c25.75,3.47,45,16.17,55.63,40.57,1.4,3.26,1.68,8,4.09,9.56,2.7,1.69,7.25.48,11,.48h35a3.41,3.41,0,0,0,.19-.95c-7.14-34.24-24.12-61.83-54.86-79.69-24.38-14.16-50.91-18.11-78.61-14.28-33.73,4.65-61.46,20.09-81.76,47.65C98,255.7,91.4,286.25,95.37,319.18c3.69,30.32,16.67,56.05,39.85,76.07,27.11,23.37,59,32.67,94.39,29.31,44.58-4.25,76.6-26.85,95-67.88C328.32,348.62,330.52,340,333.48,331.25Zm83-150.5H373.31V420.33h43.25v-4.49c0-29.47-.1-58.92,0-88.39.1-23.11,11.32-36.86,31.88-39.59,18.56-2.46,33.18,6.52,37.21,23.24a51.1,51.1,0,0,1,1.23,11.82q.15,46.9,0,93.81c0,3,.87,3.87,3.85,3.84,12.07-.16,24.15-.06,36.22-.08,1,0,2.08-.16,3.45-.26v-3.41c0-33.44.08-66.88-.07-100.32a108.47,108.47,0,0,0-1.59-18c-4.34-25-22.46-44.71-46.65-49.53a93.93,93.93,0,0,0-25.52-1c-15.53,1.23-28.79,7.63-38.39,20.45a16.71,16.71,0,0,1-1.69,1.57Z"/></svg>