<svg xmlns="http://www.w3.org/2000/svg" viewBox="0 0 546.86 547"><defs><style>.cls-1,.cls-2{fill:#fff;}.cls-1{fill-rule:evenodd;}.cls-3{fill:none;}</style></defs><g id="레이어_2" data-name="레이어 2"><g id="레이어_1-2" data-name="레이어 1"><path class="cls-1" d="M227.56,47.24a18.82,18.82,0,0,1-.55,2.1c-2.7,6.63-5.47,13.27-8.14,19.93-3.35,8.33-6.62,16.7-10,25-3,7.42-6.05,14.81-9,22.24s-5.93,15-8.92,22.52c-3.43,8.55-6.9,17.07-10.35,25.61-2.29,5.67-4.51,11.36-6.81,17-2.39,5.94-4.87,11.87-7.26,17.82-2.74,6.79-5.43,13.6-8.14,20.39-2.4,6-4.83,12.05-7.22,18.07-2.13,5.43-4.17,10.85-6.3,16.28-2.25,5.7-4.55,11.38-6.83,17.07-3.08,7.65-6.29,15.26-9.18,23-.94,2.51-1.2,5.33.56,7.84,7,10,14.08,20,21,30.07a4.68,4.68,0,0,0,4.57,2.27,2.06,2.06,0,0,0,2.22-1.47c1.15-3.14,2.46-6.21,3.72-9.29l9.14-22.53c2-5.05,4.07-10.1,6.08-15.15s3.92-10.13,6-15.16c3-7.42,6.11-14.8,9.11-22.23,2.83-7,5.6-14,8.4-21,2.37-6,4.72-11.93,7.11-17.88,1.64-4.14,3.31-8.27,5-12.41q3.65-9,7.28-18.07c2-5,3.94-9.95,5.94-14.92,2.12-5.26,4.29-10.49,6.41-15.73,2.68-6.66,5.32-13.32,8-20,2.37-5.9,4.77-11.77,7.14-17.66,2.74-6.8,5.45-13.61,8.18-20.41,2-5,4.05-9.91,6-14.9,2.18-5.55,4.24-11.14,6.39-16.69,2-5.08,4.06-10.13,6-15.21.47-1.24,1.13-1.92,2.49-1.83.68.07,1.38,0,2.05,0,5.53.32,11.07.64,16.62,1,.75,0,1.49.24,2.24.34,1.42.19,2.86.34,4.28.51,1,.12,2,.19,3,.34,3.2.52,6.41,1,9.62,1.61,3.87.67,7.76,1.3,11.6,2.14,3.17.67,6.28,1.61,9.42,2.49,4.7,1.35,9.44,2.6,14.09,4.15,7,2.35,13.89,5.14,20.68,8.12a233.94,233.94,0,0,1,34,18.63,230,230,0,0,1,28.24,21.9,234.9,234.9,0,0,1,35,39.75,3.52,3.52,0,0,0,1.36,1.42,4.59,4.59,0,0,0,5.36-1.78c1.92-2.72,3.78-5.5,5.7-8.24q6.67-9.51,13.37-19a6.38,6.38,0,0,0,1.11-3.15c.22-2.26-.73-3.92-2-5.57-5.72-7.31-11.65-14.42-18-21.18A269.8,269.8,0,0,0,431.11,49c-.43-.31-.8-.67-1.19-1a2.49,2.49,0,0,1,.24-.73c2.34-3.53,4.69-7.08,7.06-10.62s4.64-6.93,7-10.38c1.15-1.67.9-3.5.77-5.3-.1-1.34-1.46-1.68-2.37-2.26-5.66-3.54-11.35-7.07-17.09-10.49-2.93-1.75-6-3.25-9-4.89A7.16,7.16,0,0,0,411.19,3c-.94.25-1.64,1.66-2.31,2.64-4.55,6.81-9.07,13.66-13.63,20.48a6.09,6.09,0,0,1-1.05,1c-5.14-2.25-10.07-4.6-15.12-6.63-6.25-2.51-12.55-4.94-19-7-5.81-1.93-11.75-3.51-17.7-5C336.85,7,331.2,5.83,325.57,4.63c-2.38-.51-4.77-.9-7.17-1.3-2.83-.47-5.67-1-8.53-1.34-4.69-.51-9.37-.87-14.07-1.22-4-.3-8-.6-12.06-.7C278.2,0,272.65,0,267.09,0A204.14,204.14,0,0,0,241,1.73c-2.85.38-5.71.7-8.58,1.08s-5.57.67-8.31,1.18q-6,1.14-12,2.56C206.52,7.86,201,9.1,195.52,10.69S184.88,14.2,179.59,16a220,220,0,0,0-26,10.83A273.49,273.49,0,0,0,108,54.73a267.56,267.56,0,0,0-40.8,38c-5,5.8-9.7,11.88-14.47,17.9a6.05,6.05,0,0,0-.16,7.73c2.24,3.17,4.44,6.36,6.66,9.53q6.71,9.62,13.45,19.23a3.27,3.27,0,0,0,1.49,1.28c2.1.69,3.71,0,5-1.91,2.66-3.81,5.25-7.65,8.08-11.32,3.39-4.38,7-8.62,10.55-12.85A210.74,210.74,0,0,1,123,97.61c4.84-4,9.89-7.81,15-11.53a206.56,206.56,0,0,1,30.53-18.46c6.42-3.19,13-6.08,19.65-8.73s13.63-5,20.54-7.24c4.74-1.51,9.62-2.59,14.46-3.78C224.47,47.55,225.84,47.49,227.56,47.24Z"/><path class="cls-1" d="M342.81,105c-2.22,3.34-4.12,6.25-6,9.15-6.43,9.67-12.9,19.33-19.3,29a6.11,6.11,0,0,0-.74,2.29c-.53,3.14,1.11,5.76,2.17,8.5,2.67,6.9,5.49,13.77,8.23,20.65s5.26,13.56,7.94,20.32c3.92,9.93,7.92,19.82,11.85,29.75,4,10.08,7.88,20.19,11.83,30.27,3.73,9.44,7.49,18.87,11.2,28.32.39,1,.88,1.89,2,1.84,1.42-.1,3,.69,4.12-1.06,1.63-2.55,3.56-4.93,5.22-7.46,1.95-3,3.71-6.09,5.68-9,2.35-3.52,4.92-6.91,7.27-10.45q13.61-20.35,27.17-40.73,9.13-13.75,18.3-27.5,8.06-12.14,16.14-24.27c2.4-3.58,4.84-7.16,7.24-10.76a6.64,6.64,0,0,0,0-7.26,260.43,260.43,0,0,0-21-24.58c-1.74-1.81-3.7-1.35-5.7-1.2-.36,0-.75.49-1,.84-1.84,2.5-3.73,5-5.46,7.56-4.29,6.36-8.5,12.76-12.75,19.14-5.19,7.77-10.39,15.51-15.57,23.29q-9.45,14.2-18.87,28.46a15,15,0,0,1-1.28,1.47,17.83,17.83,0,0,1-.87-1.6q-4.44-11.3-8.87-22.6-5-12.47-10-24.89a2.7,2.7,0,0,1,.31-2.79c1.41-2,2.73-4,4.08-6q9.1-13.5,18.25-27c4.83-7.1,9.75-14.13,14.59-21.21,1.95-2.89,1.75-6-1-8.11a60.62,60.62,0,0,0-8.88-5.91q-10.31-5.61-20.86-10.78-9-4.38-18.23-8.21c-4.74-2-9.63-3.62-14.51-5.19C331.68,56,327.7,55.06,323.72,54c-3.29-.86-6.59-1.72-9.92-2.47-3.62-.78-7.29-1.48-10.94-2.13-3.44-.58-6.9-1.1-10.36-1.54s-7.09-.81-10.63-1.19a20.22,20.22,0,0,0-2.06,0,1.31,1.31,0,0,0-1.47,1.58,21.72,21.72,0,0,0,.56,4.49c.57,1.87,1.45,3.63,2.18,5.47,2.07,5.2,4.13,10.42,6.21,15.62s4.32,10.5,6.4,15.76a2.62,2.62,0,0,0,2.26,1.9c2,.32,4,.74,6,1.19s4.1,1,6.15,1.51c3.08.75,6.21,1.38,9.25,2.21,2.7.75,5.33,1.66,8,2.55C331.07,100.92,336.78,102.89,342.81,105Z"/><path class="cls-1" d="M227.56,47.24c-1.72.25-3.09.31-4.38.63-4.84,1.19-9.72,2.27-14.46,3.78-6.91,2.21-13.79,4.57-20.54,7.24S175,64.43,168.53,67.62A206.56,206.56,0,0,0,138,86.08c-5.07,3.72-10.12,7.5-15,11.53a210.74,210.74,0,0,0-25.19,24.71c-3.59,4.23-7.16,8.47-10.55,12.85-2.83,3.67-5.42,7.51-8.08,11.32-1.31,1.87-2.92,2.6-5,1.91a3.27,3.27,0,0,1-1.49-1.28q-6.75-9.6-13.45-19.23c-2.22-3.17-4.42-6.36-6.66-9.53a6.05,6.05,0,0,1,.16-7.73c4.77-6,9.45-12.1,14.47-17.9a267.56,267.56,0,0,1,40.8-38,273.49,273.49,0,0,1,45.55-27.91,220,220,0,0,1,26-10.83c5.29-1.79,10.56-3.73,15.93-5.3s11-2.83,16.53-4.14q6-1.41,12-2.56c2.74-.51,5.53-.81,8.31-1.18s5.73-.7,8.58-1.08A204.14,204.14,0,0,1,267.09,0c5.56,0,11.11-.06,16.65.06,4,.1,8.05.4,12.06.7,4.7.35,9.38.71,14.07,1.22,2.86.31,5.7.87,8.53,1.34,2.4.4,4.79.79,7.17,1.3,5.63,1.2,11.28,2.34,16.85,3.75,5.95,1.51,11.89,3.09,17.7,5,6.41,2.1,12.71,4.53,19,7,5.05,2,10,4.38,15.12,6.63a6.09,6.09,0,0,0,1.05-1c4.56-6.82,9.08-13.67,13.63-20.48.67-1,1.37-2.39,2.31-2.64a7.16,7.16,0,0,1,5.32.38c3,1.64,6.08,3.14,9,4.89,5.74,3.42,11.43,7,17.09,10.49.91.58,2.27.92,2.37,2.26.13,1.8.38,3.63-.77,5.3-2.35,3.45-4.68,6.92-7,10.38s-4.72,7.09-7.06,10.62a2.49,2.49,0,0,0-.24.73c.39.33.76.69,1.19,1a269.8,269.8,0,0,1,42.16,36.48c6.37,6.76,12.3,13.87,18,21.18,1.31,1.65,2.26,3.31,2,5.57a6.38,6.38,0,0,1-1.11,3.15q-6.71,9.51-13.37,19c-1.92,2.74-3.78,5.52-5.7,8.24a4.59,4.59,0,0,1-5.36,1.78,3.52,3.52,0,0,1-1.36-1.42,234.9,234.9,0,0,0-35-39.75,230,230,0,0,0-28.24-21.9,233.94,233.94,0,0,0-34-18.63c-6.79-3-13.65-5.77-20.68-8.12-4.65-1.55-9.39-2.8-14.09-4.15-3.14-.88-6.25-1.82-9.42-2.49-3.84-.84-7.73-1.47-11.6-2.14-3.21-.56-6.42-1.09-9.62-1.61-1-.15-2-.22-3-.34-1.42-.17-2.86-.32-4.28-.51-.75-.1-1.49-.31-2.24-.34-5.55-.36-11.09-.68-16.62-1-.67-.06-1.37,0-2.05,0-1.36-.09-2,.59-2.49,1.83-1.95,5.08-4,10.13-6,15.21-2.15,5.55-4.21,11.14-6.39,16.69-2,5-4,9.94-6,14.9-2.73,6.8-5.44,13.61-8.18,20.41-2.37,5.89-4.77,11.76-7.14,17.66-2.68,6.65-5.32,13.31-8,20-2.12,5.24-4.29,10.47-6.41,15.73-2,5-3.95,9.95-5.94,14.92q-3.63,9-7.28,18.07c-1.66,4.14-3.33,8.27-5,12.41-2.39,5.95-4.74,11.92-7.11,17.88-2.8,7-5.57,14-8.4,21-3,7.43-6.11,14.81-9.11,22.23-2,5-4,10.11-6,15.16s-4,10.1-6.08,15.15l-9.14,22.53c-1.26,3.08-2.57,6.15-3.72,9.29a2.06,2.06,0,0,1-2.22,1.47,4.68,4.68,0,0,1-4.57-2.27c-6.92-10.07-14-20.06-21-30.07-1.76-2.51-1.5-5.33-.56-7.84,2.89-7.74,6.1-15.35,9.18-23,2.28-5.69,4.58-11.37,6.83-17.07,2.13-5.43,4.17-10.85,6.3-16.28,2.39-6,4.82-12,7.22-18.07,2.71-6.79,5.4-13.6,8.14-20.39,2.39-5.95,4.87-11.88,7.26-17.82,2.3-5.67,4.52-11.36,6.81-17,3.45-8.54,6.92-17.06,10.35-25.61,3-7.5,5.9-15,8.92-22.52s6-14.82,9-22.24c3.35-8.34,6.62-16.71,10-25,2.67-6.66,5.44-13.3,8.14-19.93A18.82,18.82,0,0,0,227.56,47.24Z"/><path class="cls-1" d="M342.81,105c-6-2.08-11.74-4-17.47-6-2.64-.89-5.27-1.8-8-2.55-3-.83-6.17-1.46-9.25-2.21-2.05-.49-4.09-1-6.15-1.51s-4-.87-6-1.19a2.62,2.62,0,0,1-2.26-1.9c-2.08-5.26-4.27-10.49-6.4-15.76s-4.14-10.42-6.21-15.62c-.73-1.84-1.61-3.6-2.18-5.47a21.72,21.72,0,0,1-.56-4.49,1.31,1.31,0,0,1,1.47-1.58,20.22,20.22,0,0,1,2.06,0c3.54.38,7.1.72,10.63,1.19s6.92,1,10.36,1.54c3.65.65,7.32,1.35,10.94,2.13,3.33.75,6.63,1.61,9.92,2.47,4,1,8,2,11.85,3.21,4.88,1.57,9.77,3.23,14.51,5.19q9.26,3.82,18.23,8.21,10.54,5.16,20.86,10.78a60.62,60.62,0,0,1,8.88,5.91c2.71,2.15,2.91,5.22,1,8.11-4.84,7.08-9.76,14.11-14.59,21.21q-9.17,13.46-18.25,27c-1.35,2-2.67,4.07-4.08,6a2.7,2.7,0,0,0-.31,2.79q5,12.44,10,24.89,4.45,11.28,8.87,22.6a17.83,17.83,0,0,0,.87,1.6,15,15,0,0,0,1.28-1.47q9.44-14.23,18.87-28.46c5.18-7.78,10.38-15.52,15.57-23.29,4.25-6.38,8.46-12.78,12.75-19.14,1.73-2.57,3.62-5.06,5.46-7.56.25-.35.64-.81,1-.84,2-.15,4-.61,5.7,1.2a260.43,260.43,0,0,1,21,24.58,6.64,6.64,0,0,1,0,7.26c-2.4,3.6-4.84,7.18-7.24,10.76q-8.08,12.15-16.14,24.27-9.17,13.76-18.3,27.5-13.57,20.37-27.17,40.73c-2.35,3.54-4.92,6.93-7.27,10.45-2,3-3.73,6.07-5.68,9-1.66,2.53-3.59,4.91-5.22,7.46-1.11,1.75-2.7,1-4.12,1.06-1.14.05-1.63-.85-2-1.84-3.71-9.45-7.47-18.88-11.2-28.32-3.95-10.08-7.86-20.19-11.83-30.27-3.93-9.93-7.93-19.82-11.85-29.75-2.68-6.76-5.27-13.55-7.94-20.32s-5.56-13.75-8.23-20.65c-1.06-2.74-2.7-5.36-2.17-8.5a6.11,6.11,0,0,1,.74-2.29c6.4-9.7,12.87-19.36,19.3-29C338.69,111.22,340.59,108.31,342.81,105Z"/><path class="cls-2" d="M546.76,266.05c-.14-7.22-.64-14.42-1-21.64,0-.59-.17-1.2-.25-1.8-.5-3.6-1-7.21-1.46-10.82-.39-2.78-.71-5.56-1.24-8.32-.74-3.86-1.61-7.71-2.49-11.54-1-4.43-2-8.88-3.19-13.25-2.31-8.3-5.06-16.49-8.16-24.56a224.62,224.62,0,0,0-11.07-24.91c-4.15-7.84-8.69-15.48-13.11-23.17a38.74,38.74,0,0,0-2.78-4.17,4,4,0,0,0-6,.15l-7.36,10.64c-5.06,7.29-10.31,14.42-15.1,21.91-4.37,6.83-9.24,13.35-13.85,20q-8,11.63-16,23.26c-3.62,5.24-7.26,10.46-10.85,15.72-4.3,6.34-8.54,12.71-12.83,19.06-4.77,7.05-9.51,14.08-14.31,21.09q-10.5,15.32-21,30.59c-.94,1.35-2.19,2.5-3.12,3.86-1,1.56-1.72,3.39-2.9,4.83a8.56,8.56,0,0,0-2,7.18,24.73,24.73,0,0,0,1.31,4.51q5,12.56,10,25.09c1.2,3,2.4,5.9,3.68,8.8a2.18,2.18,0,0,0,1.18,1.19,4,4,0,0,0,4.85-1.83c3.06-4.36,6.12-8.72,9.13-13.1Q418,308.63,429.1,292.35c4.4-6.37,8.85-12.7,13.24-19.09,3.86-5.63,7.65-11.3,11.5-16.95,3.72-5.43,7.55-10.83,11.28-16.26,5.35-7.82,10.67-15.68,16-23.51,3-4.4,5.92-8.82,8.91-13.23,1.28-1.85,2.62-3.67,4-5.63a7.25,7.25,0,0,1,.74.88,8.53,8.53,0,0,1,.57,1.23c2.15,7,4.54,14,6,21.17.32,1.69.85,3.35,1.23,5,.51,2.28,1,4.59,1.43,6.89.48,2.91.85,5.84,1.25,8.77.53,3.82,1.17,7.64,1.57,11.48.34,3.48.42,7,.69,10.47.81,11-.14,21.86-1.37,32.73-.33,2.71-.75,5.4-1.09,8.11-.07.39,0,.75-.09,1.14-.37,2.61-.76,5.22-1.19,7.84-.27,1.63-.58,3.27-1,4.89-.47,2-1.05,3.93-1.54,5.91-.74,3.07-1.35,6.19-2.22,9.23-1.05,3.62-2.26,7.21-3.51,10.78-1.37,4-2.69,8-4.34,11.87-2.56,6-5.13,12.12-8.15,17.94-3.59,6.92-7.43,13.74-11.61,20.32a216.39,216.39,0,0,1-12.67,17.78c-4.79,6.09-10,11.8-15.08,17.69-1.16,1.35-2.41,2.2-4.31,1.79a11.39,11.39,0,0,0-2.74,0,3.07,3.07,0,0,0-3.38,2.94,11.45,11.45,0,0,0,.32,3.34c.16.78.46,1.5-.23,2.13-.88.78-1.81,1.51-3,2.52-.48-1.24-.88-2.1-1.17-3-.45-1.52-.8-3.08-1.23-4.61-1.85-6.5-3.71-13-5.51-19.49-.65-2.34-2.28-3.05-4.29-1.73-1.14.74-2.22,1.6-3.32,2.4-2.18,1.58-2.6,2.68-1.86,5.22,1.38,4.81,2.8,9.61,4.17,14.42a7.44,7.44,0,0,1,0,1.66,12,12,0,0,1-1.21-.67c-4.35-3.05-8.74-6.05-13-9.18a3.06,3.06,0,0,0-3.78-.29,58.06,58.06,0,0,0-4.85,3.42,2.67,2.67,0,0,0,.25,4.41c1.09.82,2.24,1.57,3.35,2.34q8.88,6.19,17.75,12.4c1,.67,1.88,1.43,2.71,2.08-.12.42-.11.64-.2.7-3.51,2.66-6.91,5.48-10.6,7.87-2.15,1.42-4,.48-5-1.86-.22-.48-.45-1-.71-1.44q-3.81-7.11-7.61-14.24a2.37,2.37,0,0,1-.21-2.55,4.25,4.25,0,0,0-.12-3.95c-1-2.15-2.4-2.69-4.55-1.59q-4,2.12-8,4.3c-1.6.89-2.15,1.71-1.7,3.08s1,3.5,2.75,3.55c2,.09,2.59,1.19,3.32,2.54,2.46,4.65,4.91,9.27,7.42,13.89.91,1.65,2,3.23.85,5.22-.14.24,0,.63-.07.89a3.24,3.24,0,0,1-.71,1.38,16.8,16.8,0,0,1-5.4,3c-.4-.75-.79-1.39-1.07-2.07q-5-11.73-9.9-23.48c-1.05-2.54-2.22-3-4.75-1.93-1,.45-2.06.94-3.11,1.39-2.34,1-2.81,2-1.86,4.43.79,2,1.68,3.91,2.49,5.85s1.51,3.72,2.27,5.58c-.15.12-.3.24-.43.36-.67-.41-1.37-.81-2-1.25-3.67-2.43-7.4-4.79-11-7.37a6.06,6.06,0,0,0-6.23-.61c-.85.32-1.68.68-2.5,1-2,.88-2.47,1.79-2,3.95a8.53,8.53,0,0,0,.44,1.29q5.1,11.94,10.18,23.89c.33.82.55,1.67.88,2.7l-8.53,3.14c-.07-.94-.12-1.5-.17-2.07-.16-2-.19-4.1-.53-6.11-.36-2.17-1-4.29-1.51-6.43-1.21-5-2.48-10-3.61-15.08-.29-1.35-1-1.85-2.21-1.63-2.22.38-4.45.85-6.65,1.39a1.78,1.78,0,0,0-1.35,2.1,15.14,15.14,0,0,0,.27,1.79q2.51,10.43,5,20.85a11.13,11.13,0,0,1,.26,1.33,3.88,3.88,0,0,1-2.17,3.48c-1.08.4-2,0-3-1.41a7,7,0,0,1-1-2c-.45-1.6-.8-3.23-1.2-4.86q-1.29-5.4-2.61-10.81c-.66-2.62-1.33-5.25-2-8.12-1.46.14-2.73.23-4,.42-.75.12-1.45.45-2.18.57-3.38.57-3.85.88-3.14,4.74.07.3.18.59.25.88,1.45,6.05,2.82,12.13,4.34,18.16.69,2.69,1.25,5.49,2.91,7.86.27.4.48.86.89,1.61-1.37.38-2.51.71-3.65,1-.66.18-1.35.22-2,.37-2.21.48-4.41,1.08-6.63,1.45-2.91.48-5.86.76-8.78,1.15-.37,0-.75.21-1.11.27l-4.5.56a2.24,2.24,0,0,1-2.27-1.16c-2.85-4-5.74-8-8.6-12.06-1.28-1.78-1.28-1.83,0-3.56,2.77-3.62,5.49-7.26,8.31-10.84a4.44,4.44,0,0,0,1-3.14c-.08-1.38-.24-1.61-1.6-1.64-2.66,0-5.32,0-8,0a2.4,2.4,0,0,0-2.26,1.21c-.95,1.47-2,2.88-3,4.27-.52.68-1.14,1.27-1.71,1.89a30.69,30.69,0,0,1-.4-5.43c0-1.66-.22-1.88-1.81-1.92-2-.05-4,0-5.92,0s-2.1.29-2.1,2.12q0,13.71.05,27.37c0,1.5,0,3,0,4.6h-2.67c-.51-2.9-.51-2.9-2.89-3.66V476.48a4.16,4.16,0,0,1,.8-.31c1.77-.41,1.8-.44,1.84-2.21.05-1,0-2,0-3a1.23,1.23,0,0,0-1.38-1.41H256c-.91,0-1.44.39-1.44,1.35,0,1.22,0,2.45.11,3.65.07.51.5,1.29.89,1.38,1.56.31,1.57,1.35,1.56,2.57,0,5.7,0,11.41,0,17.1a14.38,14.38,0,0,1-.06,2.28c-.06.48-.35,1.27-.64,1.32-1.49.22-1.83,1.36-2.3,2.76-2.3-.38-4.55-.73-6.75-1.08,0-.38,0-.49,0-.53.43-.53.85-1.05,1.29-1.55a17.73,17.73,0,0,0,4.46-11.22c.12-1.92-.42-2.45-2.3-2.67-.84-.09-1.68-.05-2.5-.18-2.92-.5-5.82-1.06-8.74-1.55-1.12-.18-2.28-.21-3.41-.31a1.66,1.66,0,0,0-2,1.64c-.19,1.82-.38,3.62-.54,5.44-.1,1.09.41,1.63,1.53,1.83,1.45.23,2.9.66,4.45,1-1.53,1.91-3.65,2.64-5.3,2a10.79,10.79,0,0,1-7-9.82,10.92,10.92,0,0,1,6.31-10.08c1.39-.74,3.06-1.54,4.78-.58a13.6,13.6,0,0,1,5.29,4.53c1.3,2.06,3,2.27,5,.82a22.43,22.43,0,0,1,2.36-1.78c1.95-1.06,2.36-3.3,1-5.38a14.81,14.81,0,0,0-6.29-5.76,26.07,26.07,0,0,0-12-2,12.83,12.83,0,0,0-6.26,1.85,18,18,0,0,0-8.17,9.43,24.69,24.69,0,0,0-1,15c.41,1.66,1,3.26,1.62,5.31l-11.75-3.13c.88-2.32,1.61-4.37,2.4-6.4,2.64-6.86,5.31-13.72,7.94-20.6a12.69,12.69,0,0,0,.59-2.65,1.92,1.92,0,0,0-1.31-2.17,56.57,56.57,0,0,0-5.31-2c-1.66-.54-2.58,0-3.21,1.61-1.37,3.61-2.7,7.24-4.09,10.84a13.77,13.77,0,0,1-1,1.77,5.33,5.33,0,0,1-.52-.92q-1.55-6.87-3-13.78c-1-4.74-1.16-4.88-5.81-6.36a6.9,6.9,0,0,0-4.39-.22c-.39,1-.85,2-1.24,3.07-3,7.93-6.13,15.88-9.13,23.83-1.41,3.76-1.35,3-4.27,1.73-2-.86-4-1.92-6.43-3.12a25,25,0,0,0,2.28-1.11c1.73-1.11,3.73-2,5.07-3.42,5.56-6.06,8-13.11,6.15-21.39a15.24,15.24,0,0,0-10.59-11.75c-8.8-3.05-17,.79-21.79,7.91A21.81,21.81,0,0,0,147,463a7.09,7.09,0,0,1-.19,1.59,45.15,45.15,0,0,1-8.58-5.78,3.23,3.23,0,0,1,.24-.72l17-22.86c1.54-2.07,1.34-3.94-.68-5.45-.92-.69-1.83-1.37-2.76-2-2-1.45-3.38-1.26-4.83.69-1.33,1.77-2.57,3.57-3.9,5.33-.63.83-1.33,1.58-2.11,2.48l-5.35-4a4.51,4.51,0,0,1,.36-.88c1.68-2.26,3.37-4.49,5.08-6.74,1.49-2,1.29-3.83-.59-5.29-1-.75-2-1.45-3-2.15-2.33-1.7-3.56-1.5-5.28.83-4.61,6.24-9.19,12.48-13.81,18.69-.94,1.27-2,2.47-3.08,3.89-.8-.67-1.48-1.13-2-1.7-4.83-5-9.74-9.84-14.43-14.91A223.64,223.64,0,0,1,80,399.64a3.79,3.79,0,0,1-.43-4c.59-1.32,1.1-2.67,1.63-4,2.94-7.47,5.83-15,8.81-22.38s6.09-15,9.08-22.45c2.08-5.26,4-10.58,6.07-15.83,2.38-6,4.86-12,7.24-18s4.68-12.1,7-18.15c2.11-5.39,4.27-10.76,6.38-16.17,2-5.05,4-10.11,6-15.15,2.14-5.4,4.33-10.78,6.45-16.19,1.21-3.09,2.28-6.23,3.48-9.33,1.61-4.17,3.31-8.29,5-12.43L153,209.26a17.86,17.86,0,0,0,1.44-5.91,11.2,11.2,0,0,0-2.28-7.32c-6.7-9.31-13.22-18.74-19.69-28.22a4.93,4.93,0,0,0-5.16-2.36,1.83,1.83,0,0,0-1.79,1.39c-1,2.85-2.19,5.65-3.31,8.46q-4.06,10.33-8.12,20.66c-1.68,4.22-3.34,8.41-5,12.62-1.78,4.47-3.58,8.95-5.34,13.42s-3.37,8.73-5.1,13.07-3.54,8.62-5.26,13c-1.83,4.63-3.61,9.28-5.43,13.91-1.69,4.27-3.43,8.52-5.09,12.79-2,5.21-4,10.43-6,15.64-2.43,6.16-4.92,12.29-7.34,18.48-2.06,5.25-4,10.55-6.05,15.81q-3.66,9.39-7.39,18.72c-.62,1.53-1.3,3-2,4.5a4.61,4.61,0,0,0-.54,0c-1.28-4.07-2.63-8.11-3.86-12.21-.84-2.81-1.55-5.67-2.29-8.52-.58-2.26-1.12-4.52-1.64-6.8-.44-1.92-.78-3.84-1.18-5.78-.51-2.5-1.15-5-1.51-7.54-.5-3.3-.56-6.65-1.16-9.92-1.07-5.87-.94-11.82-1.53-17.71-.93-9.21.59-18.37.88-27.54a8.85,8.85,0,0,1,.18-1.13q.76-5.28,1.51-10.57c0-.3,0-.61.06-.91.4-2.61.75-5.24,1.25-7.84.41-2.23,1-4.43,1.5-6.64.71-3.23,1.31-6.51,2.22-9.71,1.34-4.72,2.89-9.38,4.37-14.06a166,166,0,0,1,8.27-21.1c3-6.29,6.26-12.44,9.47-18.61,1.51-2.89,1.56-5.61-.35-8.32-2.25-3.15-4.47-6.33-6.69-9.51-4.47-6.42-8.9-12.86-13.41-19.25a3.94,3.94,0,0,0-6.32.12c-2.93,4.8-5.89,9.57-8.68,14.44a239.6,239.6,0,0,0-14.87,30.94c-1.67,4.21-3.27,8.46-4.76,12.75-1.57,4.51-3.13,9-4.41,13.62-1.56,5.54-2.89,11.16-4.21,16.75-.9,3.84-1.77,7.68-2.4,11.57-.87,5.55-1.65,11.11-2.25,16.68-.67,6.28-1.4,12.57-1.53,18.86C0,271.6-.36,283.33.79,295c.5,5.06.84,10.14,1.36,15.21.27,2.63.72,5.25,1.17,7.87s1,5.21,1.48,7.81c.72,3.72,1.35,7.45,2.18,11.15.71,3.09,1.59,6.16,2.49,9.22,2,6.67,3.85,13.4,6.14,20,2.22,6.29,4.83,12.42,7.45,18.55a244.85,244.85,0,0,0,18.26,34.57A267.25,267.25,0,0,0,74.37,462a271.56,271.56,0,0,0,71.41,54.12,268.73,268.73,0,0,0,38.39,16.47c5.5,1.88,11.13,3.44,16.77,5,5.18,1.39,10.44,2.54,15.65,3.76,1.92.44,3.87.8,5.8,1.17,2.77.51,5.52,1.06,8.29,1.44,3.54.51,7.08,1,10.63,1.27,6.81.63,13.61,1.38,20.44,1.63,7.51.29,15.06.31,22.58,0,7.28-.28,14.55-1,21.8-1.69,5.67-.58,11.31-1.33,16.92-2.32,5.38-.95,10.68-2.21,16-3.48,4.64-1.11,9.22-2.4,13.81-3.66a232.79,232.79,0,0,0,28.67-10.24,258.93,258.93,0,0,0,28.7-14.27,277.3,277.3,0,0,0,35.86-24.56,269.82,269.82,0,0,0,31.41-29.8,267,267,0,0,0,24.39-31.51,271.07,271.07,0,0,0,23.32-43.17,262.91,262.91,0,0,0,10.55-29.26c2.2-7.49,4.2-15,5.65-22.7.37-1.93.79-3.87,1.16-5.8.48-2.68,1-5.35,1.43-8.06q.74-5.29,1.25-10.62c.53-5.52,1.2-11,1.39-16.57C546.9,281.41,546.91,273.72,546.76,266.05Zm-411.89,179c-1.72,2.38-3.51,4.71-5.56,7.4L124,448c1.89-2.77,3.74-5.31,5.9-8,1.7,1.27,3.29,2.37,4.8,3.59A1.45,1.45,0,0,1,134.87,445.05Zm22.33,18.74c-1.73-4,.11-9.43,3.81-12.29,1.81-1.41,3.7-2.67,6.63-2.57a4.46,4.46,0,0,1,3.71,1.89c2.3,2.79,3.36,5.79,2,9.45a12.91,12.91,0,0,1-6.76,7.57C162.35,469.83,159.32,468.66,157.2,463.79Zm39,25.33-7.34-2.64a69.35,69.35,0,0,1,4.4-11c1.74,4.27,2.32,8.73,3.43,13.08Zm87,13.37a1.62,1.62,0,0,1-1.11-1.13,20.69,20.69,0,0,1,.19-4.69,18.8,18.8,0,0,1,4.29,5.5A19,19,0,0,1,283.14,502.49Zm89-21.62c-3.2,1.26-2.82,2.14-4.48-1.76-.83-1.94-1.66-3.91-2.48-5.86a4.52,4.52,0,0,1-.17-.87,3.28,3.28,0,0,1,1.24.22c3,2,6,4,9.61,6.36C374.4,479.74,373.34,480.41,372.18,480.87Z"/><path class="cls-3" d="M273.71,177.79s-.12-.07-.19-.08a3.55,3.55,0,0,0-.51,0L213.68,329.08c-.18.5-.4,1-.54,1.48a8.31,8.31,0,0,0-.09,1.19H331.19c.94,0,1.88-.12,3.12-.2L274.83,180.27C274.48,179.44,274.08,178.62,273.71,177.79Z"/><path class="cls-2" d="M390.7,362.27c-2.19-5.22-4.26-10.49-6.37-15.74-1.71-4.28-3.35-8.57-5.06-12.84-2.06-5.18-4.23-10.34-6.26-15.54s-4-10.56-6.05-15.81c-2.39-6.11-4.87-12.17-7.28-18.27-1.72-4.33-3.36-8.7-5.09-13-2.06-5.18-4.23-10.33-6.28-15.52-3-7.65-5.93-15.32-8.93-23-2.08-5.33-4.24-10.62-6.34-15.95-2.33-5.9-4.6-11.82-6.92-17.7-2.09-5.27-4.26-10.49-6.33-15.76s-4-10.41-6-15.6c-3.08-7.81-6.18-15.58-9.28-23.39-1.8-4.55-3.64-9.1-5.45-13.66-1.33-3.37-2.69-6.76-4-10.15-1.2-3.15-2.31-6.33-3.5-9.5-1.36-3.58-2.76-7.15-4.17-10.71S284.44,92.69,283,89l-4.17-10.7c-1-2.58-2.09-5.15-3.18-7.88a13.85,13.85,0,0,1-2.33,0c-1.71-.28-2.51.71-3,2.08-1.63,4.06-3.25,8.14-4.84,12.21-1.8,4.57-3.56,9.15-5.36,13.73-2.05,5.25-4.13,10.49-6.17,15.77-.86,2.25-1.58,4.53-2.43,6.77-1.7,4.45-3.43,8.87-5.15,13.31l-6.1,15.57c-1.78,4.49-3.58,9-5.32,13.48-2,5.11-3.93,10.26-5.94,15.37-2.09,5.34-4.26,10.65-6.36,16-2.64,6.74-5.2,13.51-7.86,20.23-2.69,6.88-5.47,13.72-8.18,20.58-2.17,5.49-4.28,11-6.44,16.47-2,5.06-4,10.1-5.94,15.16-1.75,4.5-3.44,9-5.2,13.52s-3.52,8.66-5.23,13c-1.86,4.7-3.66,9.43-5.47,14.14-1.43,3.66-2.83,7.31-4.25,11s-2.83,7.31-4.3,11c-2.31,5.78-4.69,11.54-7,17.34-2.15,5.38-4.21,10.82-6.37,16.21-1,2.4-1.88,4.77-1,7.38,2.11.49,234.73.44,236.46,0C392.45,367.57,392.11,365.64,390.7,362.27Zm-59.51-30.53H213.05a8.31,8.31,0,0,1,.09-1.19c.14-.49.36-1,.54-1.48L273,177.71a3.55,3.55,0,0,1,.51,0c.07,0,.17,0,.19.08.37.83.77,1.65,1.12,2.48l59.48,151.27C333.07,331.62,332.13,331.74,331.19,331.74Z"/></g></g></svg>