<svg width="24" height="24" viewBox="0 0 24 24" fill="none" xmlns="http://www.w3.org/2000/svg">
<g clip-path="url(#clip0_1475_14121)">
<path d="M24 11.9265C24 11.8676 24 11.8006 23.9973 11.7229C23.9946 11.506 23.9893 11.2622 23.9839 11.0024C23.9625 10.2551 23.925 9.51044 23.8661 8.80865C23.7857 7.84169 23.6679 7.03544 23.5071 6.43008C23.3375 5.79834 23.0051 5.22217 22.543 4.75918C22.081 4.29618 21.5055 3.96257 20.8741 3.79169C20.1161 3.58811 18.6321 3.46222 16.5429 3.38454C15.5491 3.34704 14.4857 3.32294 13.4223 3.30954C13.05 3.30419 12.7045 3.30151 12.3938 3.29883H11.6062C11.2955 3.30151 10.95 3.30419 10.5777 3.30954C9.51429 3.32294 8.45089 3.34704 7.45714 3.38454C5.36786 3.4649 3.88125 3.59079 3.12589 3.79169C2.49429 3.96215 1.91858 4.29562 1.45646 4.75868C0.994336 5.22174 0.662036 5.79813 0.492857 6.43008C0.329464 7.03544 0.214286 7.84169 0.133929 8.80865C0.075 9.51044 0.0375 10.2551 0.0160714 11.0024C0.00803567 11.2622 0.0053571 11.506 0.00267853 11.7229C0.00267853 11.8006 0 11.8676 0 11.9265V12.0765C0 12.1354 -4.09117e-08 12.2024 0.00267853 12.2801C0.0053571 12.497 0.0107142 12.7408 0.0160714 13.0006C0.0375 13.7479 0.075 14.4926 0.133929 15.1944C0.214286 16.1613 0.332143 16.9676 0.492857 17.5729C0.835714 18.856 1.84286 19.8685 3.12589 20.2113C3.88125 20.4149 5.36786 20.5408 7.45714 20.6185C8.45089 20.656 9.51429 20.6801 10.5777 20.6935C10.95 20.6988 11.2955 20.7015 11.6062 20.7042H12.3938C12.7045 20.7015 13.05 20.6988 13.4223 20.6935C14.4857 20.6801 15.5491 20.656 16.5429 20.6185C18.6321 20.5381 20.1187 20.4122 20.8741 20.2113C22.1571 19.8685 23.1643 18.8587 23.5071 17.5729C23.6705 16.9676 23.7857 16.1613 23.8661 15.1944C23.925 14.4926 23.9625 13.7479 23.9839 13.0006C23.992 12.7408 23.9946 12.497 23.9973 12.2801C23.9973 12.2024 24 12.1354 24 12.0765V11.9265ZM22.0714 12.0658C22.0714 12.122 22.0714 12.1837 22.0688 12.256C22.0661 12.4649 22.0607 12.6953 22.0554 12.9444C22.0366 13.6569 21.9991 14.3694 21.9429 15.031C21.8705 15.8935 21.7688 16.6006 21.6429 17.0747C21.4768 17.6935 20.9893 18.1837 20.3732 18.347C19.8107 18.497 18.3937 18.6176 16.4679 18.6899C15.4929 18.7274 14.4429 18.7515 13.3955 18.7649C13.0286 18.7703 12.6884 18.7729 12.383 18.7729H11.617L10.6045 18.7649C9.55714 18.7515 8.50982 18.7274 7.53214 18.6899C5.60625 18.6149 4.18661 18.497 3.62679 18.347C3.01071 18.181 2.52321 17.6935 2.35714 17.0747C2.23125 16.6006 2.12946 15.8935 2.05714 15.031C2.00089 14.3694 1.96607 13.6569 1.94464 12.9444C1.93661 12.6953 1.93393 12.4622 1.93125 12.256C1.93125 12.1837 1.92857 12.1194 1.92857 12.0658V11.9372C1.92857 11.881 1.92857 11.8194 1.93125 11.747C1.93393 11.5381 1.93929 11.3078 1.94464 11.0586C1.96339 10.3461 2.00089 9.63365 2.05714 8.97204C2.12946 8.10954 2.23125 7.4024 2.35714 6.92829C2.52321 6.30954 3.01071 5.81936 3.62679 5.65597C4.18929 5.50597 5.60625 5.38543 7.53214 5.31311C8.50714 5.27561 9.55714 5.25151 10.6045 5.23811C10.9714 5.23276 11.3116 5.23008 11.617 5.23008H12.383L13.3955 5.23811C14.4429 5.25151 15.4902 5.27561 16.4679 5.31311C18.3937 5.38811 19.8134 5.50597 20.3732 5.65597C20.9893 5.82204 21.4768 6.30954 21.6429 6.92829C21.7688 7.4024 21.8705 8.10954 21.9429 8.97204C21.9991 9.63365 22.0339 10.3461 22.0554 11.0586C22.0634 11.3078 22.0661 11.5408 22.0688 11.747C22.0688 11.8194 22.0714 11.8836 22.0714 11.9372V12.0658ZM9.61607 15.5908L15.8304 11.9747L9.61607 8.41222V15.5908Z" fill="white" fill-opacity="0.85"/>
</g>
<defs>
<clipPath id="clip0_1475_14121">
<rect width="24" height="24" fill="white"/>
</clipPath>
</defs>
</svg>
